<svg width="20.000000" height="19.999023" viewBox="0 0 20 19.999" fill="none" xmlns="http://www.w3.org/2000/svg" xmlns:xlink="http://www.w3.org/1999/xlink">
	<desc>
			Created with Pixso.
	</desc>
	<defs/>
	<path id="Vector (Stroke)" d="M10 2C8.39 2 7.09 3.29 7.09 4.9C7.09 6.5 8.39 7.8 10 7.8C11.6 7.8 12.9 6.5 12.9 4.9C12.9 3.29 11.6 2 10 2ZM5.09 4.9C5.09 2.19 7.29 0 10 0C12.7 0 14.9 2.19 14.9 4.9C14.9 7.6 12.7 9.8 10 9.8C7.29 9.8 5.09 7.6 5.09 4.9Z" fill="#9098B1" fill-opacity="1.000000" fill-rule="evenodd"/>
	<path id="Vector (Stroke)" d="M7.51 13.39C4.47 13.39 2 15.86 2 18.9L2 18.99C2 19.55 1.55 19.99 1 19.99C0.44 19.99 0 19.55 0 18.99L0 18.9C0 14.75 3.36 11.39 7.51 11.39L12.48 11.39C16.63 11.39 20 14.75 20 18.9L20 18.99C20 19.55 19.55 19.99 19 19.99C18.44 19.99 18 19.55 18 18.99L18 18.9C18 15.86 15.52 13.39 12.48 13.39L7.51 13.39Z" fill="#9098B1" fill-opacity="1.000000" fill-rule="evenodd"/>
</svg>
