<svg width="20.000000" height="20.000000" viewBox="0 0 20 20" fill="none" xmlns="http://www.w3.org/2000/svg" xmlns:xlink="http://www.w3.org/1999/xlink">
	<desc>
			Created with Pixso.
	</desc>
	<defs/>
	<path id="Vector" d="M7.18 19C7.49 19 7.75 18.74 7.75 18.43C7.75 18.12 7.49 17.87 7.18 17.87C6.87 17.87 6.62 18.12 6.62 18.43C6.62 18.74 6.87 19 7.18 19Z" fill="#9098B1" fill-opacity="1.000000" fill-rule="nonzero"/>
	<path id="Vector" d="M7.18 19C6.87 19 6.62 18.74 6.62 18.43C6.62 18.12 6.87 17.87 7.18 17.87C7.49 17.87 7.75 18.12 7.75 18.43C7.75 18.74 7.49 19 7.18 19Z" stroke="#9098B1" stroke-opacity="1.000000" stroke-width="2.000000" stroke-linejoin="round"/>
	<path id="Vector" d="M15.06 19C15.37 19 15.62 18.74 15.62 18.43C15.62 18.12 15.37 17.87 15.06 17.87C14.75 17.87 14.5 18.12 14.5 18.43C14.5 18.74 14.75 19 15.06 19Z" fill="#9098B1" fill-opacity="1.000000" fill-rule="nonzero"/>
	<path id="Vector" d="M15.06 19C14.75 19 14.5 18.74 14.5 18.43C14.5 18.12 14.75 17.87 15.06 17.87C15.37 17.87 15.62 18.12 15.62 18.43C15.62 18.74 15.37 19 15.06 19Z" stroke="#9098B1" stroke-opacity="1.000000" stroke-width="2.000000" stroke-linejoin="round"/>
	<path id="Vector" d="M1 1L3.25 1L5.5 14.5L16.75 14.5L19 4.37L4.37 4.37" stroke="#9098B1" stroke-opacity="1.000000" stroke-width="2.000000" stroke-linejoin="round" stroke-linecap="round"/>
</svg>
