<svg width="16.000000" height="16.000366" viewBox="0 0 16 16.0004" fill="none" xmlns="http://www.w3.org/2000/svg" xmlns:xlink="http://www.w3.org/1999/xlink">
	<desc>
			Created with Pixso.
	</desc>
	<defs/>
	<path id="Vector" d="M15.84 6.43L15.2 6.43L15.2 6.4L8 6.4L8 9.6L12.52 9.6C11.86 11.46 10.08 12.8 8 12.8C5.34 12.8 3.2 10.65 3.2 8C3.2 5.34 5.34 3.2 8 3.2C9.22 3.2 10.33 3.66 11.18 4.41L13.44 2.15C12.01 0.82 10.1 0 8 0C3.58 0 0 3.58 0 8C0 12.41 3.58 16 8 16C12.41 16 16 12.41 16 8C16 7.46 15.94 6.94 15.84 6.43Z" fill="#FFC107" fill-opacity="1.000000" fill-rule="nonzero"/>
	<path id="Vector" d="M0.92 4.27L3.54 6.2C4.26 4.44 5.98 3.2 7.99 3.2C9.22 3.2 10.33 3.66 11.18 4.41L13.44 2.15C12.01 0.82 10.1 0 7.99 0C4.92 0 2.26 1.73 0.92 4.27Z" fill="#FF3D00" fill-opacity="1.000000" fill-rule="nonzero"/>
	<path id="Vector" d="M8 16C10.06 16 11.94 15.2 13.36 13.92L10.88 11.82C10.08 12.43 9.08 12.8 8 12.8C5.91 12.8 4.15 11.47 3.48 9.62L0.87 11.63C2.2 14.22 4.89 16 8 16Z" fill="#4CAF50" fill-opacity="1.000000" fill-rule="nonzero"/>
	<path id="Vector" d="M15.84 6.43L15.2 6.43L15.2 6.4L8 6.4L8 9.6L12.52 9.6C12.2 10.49 11.62 11.26 10.88 11.82C10.88 11.82 10.88 11.82 10.88 11.82L13.36 13.92C13.18 14.08 16 12 16 8C16 7.46 15.94 6.94 15.84 6.43Z" fill="#1976D2" fill-opacity="1.000000" fill-rule="nonzero"/>
</svg>
