<svg width="20.000000" height="15.500031" viewBox="0 0 20 15.5" fill="none" xmlns="http://www.w3.org/2000/svg" xmlns:xlink="http://www.w3.org/1999/xlink">
	<desc>
			Created with Pixso.
	</desc>
	<defs/>
	<path id="Vector (Stroke)" d="M0 1C0 0.44 0.44 3.05e-5 1 3.05e-5L19 3.05e-5C19.55 3.05e-5 20 0.44 20 1L20 14.5C20 15.05 19.55 15.5 19 15.5L1 15.5C0.44 15.5 0 15.05 0 14.5L0 1ZM2 2L2 13.5L18 13.5L18 2L2 2Z" fill="#9098B1" fill-opacity="1.000000" fill-rule="evenodd"/>
	<path id="Vector (Stroke)" d="M0.24 0.34C0.6 -0.08 1.23 -0.12 1.65 0.24L10 7.39L18.34 0.24C18.76 -0.12 19.39 -0.08 19.75 0.34C20.11 0.76 20.07 1.39 19.65 1.75L10.65 9.47C10.27 9.79 9.72 9.79 9.34 9.47L0.34 1.75C-0.08 1.39 -0.12 0.76 0.24 0.34Z" fill="#9098B1" fill-opacity="1.000000" fill-rule="evenodd"/>
</svg>
