<svg width="19.999023" height="20.000000" viewBox="0 0 19.999 20" fill="none" xmlns="http://www.w3.org/2000/svg" xmlns:xlink="http://www.w3.org/1999/xlink">
	<desc>
			Created with Pixso.
	</desc>
	<defs/>
	<path id="Vector" d="M6.06 6.62C6.37 6.62 6.62 6.37 6.62 6.06C6.62 5.75 6.37 5.5 6.06 5.5C5.75 5.5 5.5 5.75 5.5 6.06C5.5 6.37 5.75 6.62 6.06 6.62Z" fill="#9098B1" fill-opacity="1.000000" fill-rule="nonzero"/>
	<path id="Vector" d="M6.06 6.62C5.75 6.62 5.5 6.37 5.5 6.06C5.5 5.75 5.75 5.5 6.06 5.5C6.37 5.5 6.62 5.75 6.62 6.06C6.62 6.37 6.37 6.62 6.06 6.62Z" stroke="#9098B1" stroke-opacity="1.000000" stroke-width="2.000000" stroke-linejoin="round"/>
	<path id="Vector" d="M11 19L1 8.99L1 1L9 1L19 11L11 19Z" stroke="#9098B1" stroke-opacity="1.000000" stroke-width="2.000000" stroke-linejoin="round"/>
</svg>
