<svg width="20.000000" height="20.000000" viewBox="0 0 20 20" fill="none" xmlns="http://www.w3.org/2000/svg" xmlns:xlink="http://www.w3.org/1999/xlink">
	<desc>
			Created with Pixso.
	</desc>
	<defs/>
	<path id="Vector (Stroke)" d="M0 7.75C0 7.19 0.44 6.75 1 6.75L19 6.75C19.55 6.75 20 7.19 20 7.75L20 19C20 19.55 19.55 20 19 20L1 20C0.44 20 0 19.55 0 19L0 7.75ZM2 8.75L2 18L18 18L18 8.75L2 8.75Z" fill="#9098B1" fill-opacity="1.000000" fill-rule="evenodd"/>
	<path id="Vector (Stroke)" d="M10 2C7.48 2 5.37 4.13 5.37 6.84C5.37 7.39 4.92 7.84 4.37 7.84C3.82 7.84 3.37 7.39 3.37 6.84C3.37 3.09 6.3 0 10 0C13.69 0 16.62 3.09 16.62 6.84C16.62 7.39 16.17 7.84 15.62 7.84C15.07 7.84 14.62 7.39 14.62 6.84C14.62 4.13 12.51 2 10 2Z" fill="#9098B1" fill-opacity="1.000000" fill-rule="evenodd"/>
	<path id="Vector (Stroke)" d="M10 11.72C10.55 11.72 11 12.17 11 12.72L11 13.85C11 14.4 10.55 14.85 10 14.85C9.44 14.85 9 14.4 9 13.85L9 12.72C9 12.17 9.44 11.72 10 11.72Z" fill="#9098B1" fill-opacity="1.000000" fill-rule="evenodd"/>
</svg>
